<svg width="29.639116" height="33.80088" viewBox="0 0 704.66999 798.29726" fill="none" xmlns="http://www.w3.org/2000/svg">
  <g
     transform="matrix(24,0,0,24,-85.090725,-2.6750002)"
     fill="#ffffff">
    <path
       d="M 31.3152,20.1992 H 4.88516 l 11.51714,1.72 z"
       style="fill:#ffffff;stroke:#ffffff" />
    <path
       d="m 27.6452,6.89926 -0.8226,1.71158 c -0.016,0.03326 0.0233,0.06577 0.054,0.04473 l 1.4507,-0.9931 c 0.0579,-0.0396 0.0695,-0.11892 0.0254,-0.1729 l -0.502,-0.61413 c -0.0564,-0.069 -0.167,-0.05618 -0.2055,0.02382 z"
       style="fill:#ffffff" />
    <path
       d="m 24.3798,6.89926 0.8226,1.71158 c 0.016,0.03326 -0.0233,0.06577 -0.054,0.04473 L 23.6977,7.66247 C 23.6398,7.62287 23.6282,7.54355 23.6723,7.48957 l 0.502,-0.61413 c 0.0564,-0.069 0.167,-0.05618 0.2055,0.02382 z"
       style="fill:#ffffff" />
    <path
       d="m 30.4802,8.89643 -2.2547,0.77809 1.789,-0.15094 C 30.1541,9.5118 30.2746,9.42279 30.3248,9.29439 Z"
       style="fill:#ffffff" />
    <path
       d="M 30.3939,8.53427 27.1435,9.6678 c -0.0402,0.014 -0.0276,0.07261 0.0149,0.0696 L 28.2128,9.66282 30.4581,8.91399 30.5482,8.69103 C 30.5868,8.59549 30.4927,8.49984 30.3939,8.53427 Z"
       style="fill:#ffffff" />
    <path
       d="m 21.5031,8.89643 2.213,0.73714 -1.7539,-0.14283 C 21.8237,9.47946 21.7036,9.39217 21.6524,9.26546 Z"
       style="fill:#ffffff" />
    <path
       d="m 21.5905,8.57297 3.1159,1.0538 c 0.0404,0.01368 0.0282,0.07265 -0.0145,0.06972 L 23.6893,9.62772 21.5189,8.92569 21.4379,8.73128 C 21.3982,8.63609 21.4914,8.53945 21.5905,8.57297 Z"
       style="fill:#ffffff" />
    <path
       d="m 31.3174,10.6164 h -4.6786 l 3.6369,1.0871 1.141,1.411 0.0226,-2.3774 c 7e-4,-0.0664 -0.0541,-0.1207 -0.1219,-0.1207 z"
       style="fill:#ffffff" />
    <path
       d="m 26.6092,10.6164 h -3.77 l 3.0587,0.9102 4.3627,5.6012 h 1.0162 c 0.0673,0 0.1219,-0.0536 0.1219,-0.1196 V 13.1136 L 30.2606,11.69 Z"
       style="fill:#ffffff" />
    <path
       d="m 20.2923,10.736 v 1.9995 l 7.1754,3.4929 2.0671,2.7013 v -1.8164 h 0.7366 l -4.3956,-5.612 -3.0175,-0.8849 h -2.4441 c -0.0673,0 -0.1219,0.0536 -0.1219,0.1196 z"
       style="fill:#ffffff" />
    <path
       d="M 20.2923,17.0326 V 12.705 l 7.1638,3.4925 2.0637,2.7009 v 0.7684 l -2.5382,-2.5146 h -6.5674 c -0.0673,0 -0.1219,-0.0536 -0.1219,-0.1196 z"
       style="fill:#ffffff" />
    <path
       d="m 13.0848,17.3808 -0.8927,1.5079 0.5441,-3.8848 0.8755,-0.0466 -0.4849,2.3155 c -0.0079,0.0379 -0.0221,0.0744 -0.042,0.108 z"
       style="fill:#ffffff" />
    <path
       d="m 17.8141,17.9691 -1.2016,-1.128 -0.1198,3.3581 h 1.102 l 0.3273,-1.9115 c 0.02,-0.1172 -0.0203,-0.2365 -0.1079,-0.3186 z"
       style="fill:#ffffff" />
    <path
       d="M 11.1482,5.33489 10.608,4.30981 10.3966,9.13232 10.9368,9.55167 Z"
       style="fill:#ffffff" />
    <path
       d="M 18.7474,5.35356 19.011,4.63743 20.0417,4.86844 19.9051,5.25025 C 19.8457,5.41633 19.6722,5.51563 19.4956,5.48467 Z"
       style="fill:#ffffff" />
    <path
       d="m 12.8184,13.5959 -0.6897,-3.08 -0.428,-0.35 0.1427,3.9433 -0.5945,2.7067 -2.02136,3.3833 h 0.99876 z"
       style="fill:#ffffff" />
    <path
       d="M 6.13777,4.09681 8.25854,4.53933 C 8.32184,4.55254 8.38464,4.51494 8.4016,4.45369 L 8.89412,2.67533 10.1772,3.02487 10.605,3.67735 v 0.65249 l 0.5003,0.93879 c 0.0302,0.05666 0.0445,0.12021 0.0412,0.18407 l -0.2089,4.12031 1.093,0.90039 c 0.0617,0.0508 0.1045,0.1201 0.1219,0.1972 l 0.6384,2.8282 c 0.0156,0.0689 0.0101,0.1407 -0.0158,0.2066 l -2.5503,6.4938 h 1.8771 l -0.3801,-0.5593 0.4752,-0.7457 0.5703,-3.8916 1.8771,-0.0932 3.1457,3.0849 c 0.0837,0.0822 0.1217,0.1989 0.1021,0.3134 l -0.3251,1.8915 h 1.6396 L 18.6364,19.5001 V 18.4748 L 12.791,9.82935 15.5477,9.15906 C 15.6246,9.14037 15.6932,9.09769 15.7433,9.03745 L 18.8027,5.35517 19.0403,4.63278 7.56347,2.13936 6.85062,3.49093 Z M 12.0189,4.02316 17.286,5.05141 16.5558,7.06511 C 16.5345,7.12379 16.498,7.17603 16.4499,7.21668 L 15.2383,8.24091 C 15.1765,8.2931 15.0947,8.31629 15.014,8.30444 14.8355,8.27818 14.7286,8.09542 14.7957,7.93101 L 14.9271,7.60893 C 14.9425,7.5712 14.9512,7.53118 14.953,7.49058 L 15.006,6.2431 C 15.0146,6.03924 14.8485,5.86933 14.6404,5.86933 h -0.9815 c -0.1768,0 -0.3283,0.12401 -0.36,0.29463 L 12.9832,7.86679 C 12.9498,8.04673 12.7838,8.17327 12.5978,8.16054 L 11.8997,8.11279 Z"
       style="clip-rule:evenodd;fill:#ffffff;fill-rule:evenodd" />
    <path
       d="m 11.9833,3.99741 0.0379,-0.29142 c 0.0181,-0.1382 0.1522,-0.23213 0.2913,-0.20396 l 4.7477,0.96124 c 0.1057,0.02141 0.1845,0.10846 0.1937,0.21398 l 0.0045,0.05179 c 0.0138,0.15893 -0.1319,0.28635 -0.2913,0.25479 z"
       style="fill:#ffffff" />
    <path
       d="m 17.7027,8.22456 1.0447,-2.85 -3.0064,3.6567 C 15.6891,9.09438 15.617,9.1384 15.5363,9.15615 l -2.6696,0.58729 c -0.0836,0.01839 -0.1223,0.1134 -0.0746,0.18324 l 5.8366,8.55252 -0.0238,-2.2618 -4.0837,-5.3865 1.8284,-1.091 c 0.0313,-0.0187 0.0596,-0.04192 0.0839,-0.06888 l 1.199,-1.33019 c 0.0307,-0.03404 0.0545,-0.0735 0.0702,-0.11627 z"
       style="fill:#ffffff" />
    <path
       d="M 13.3119,8.03132 13.0136,7.66787 12.9741,7.88459 c -0.0322,0.17674 -0.1927,0.30292 -0.3756,0.29533 l -0.7822,-0.03243 1.0022,0.51984 c 0.1933,0.10024 0.4324,0.01296 0.5119,-0.1868 L 13.3677,8.38671 C 13.4153,8.26699 13.394,8.13143 13.3119,8.03132 Z"
       style="fill:#ffffff" />
    <path
       d="M 14.5836,7.14001 14.4885,5.86599 h 0.161 c 0.2082,0 0.3744,0.17014 0.3655,0.37414 l -0.0551,1.26538 c -0.0017,0.03987 -0.0102,0.07918 -0.0252,0.1163 L 14.8339,7.87264 14.6035,7.23339 C 14.5927,7.20328 14.586,7.17187 14.5836,7.14001 Z"
       style="fill:#ffffff" />
    <path
       d="M 14.4885,5.86599 H 13.9159 L 13.4864,8.48691 14.6794,8.29802 14.8225,7.873 14.5993,7.23241 C 14.5891,7.2031 14.5828,7.17261 14.5806,7.14171 Z"
       style="fill:#ffffff" />
    <path
       d="M 9.0613,1.85943 6.61314,1.32032 6.13777,4.08619 6.85083,3.52364 7.56388,2.1407 19.4766,4.75381 c 0.3387,0.07431 0.6729,-0.25962 0.3353,-0.33889 v 0 L 19.337,4.30341 C 19.266,4.28674 19.2206,4.21862 19.2336,4.14819 19.2471,4.07504 19.1977,4.00497 19.1232,3.9915 L 17.9557,3.78041 C 17.8806,3.76684 17.8045,3.79852 17.7624,3.8609 17.7184,3.9259 17.6379,3.95729 17.5605,3.93964 L 12.2256,2.72385 C 12.1124,2.69806 12.0324,2.59918 12.0324,2.48526 c 0,-0.11815 -0.086,-0.21947 -0.2045,-0.24088 L 10.6916,2.03893 c -0.0444,-0.00802 -0.0853,0.02539 -0.0853,0.06965 0,0.13646 -0.1293,0.23755 -0.2649,0.20715 L 9.03753,2.02351 Z"
       style="fill:#ffffff" />
    <path
       d="M 9.04397,1.89365 6.59706,1.37088 6.83429,0.0981413 C 6.84721,0.0288096 6.91815,-0.014587 6.98732,0.00452152 L 9.23936,0.626668 c 0.06327,0.017479 0.10103,0.080993 0.08538,0.143608 z"
       style="fill:#ffffff" />
    <path
       d="M 10.6054,3.65458 8.7265,3.23575 8.8606,2.74845 C 8.87839,2.68382 8.94678,2.64609 9.01232,2.66475 l 1.05218,0.29944 c 0.0879,0.02501 0.163,0.0814 0.2105,0.15805 z"
       style="fill:#ffffff" />
    <path
       d="M 16.2294,9.95768 16.4092,9.71547 14.5703,10.73 c -0.065,0.0359 -0.0823,0.1201 -0.0364,0.1778 l 1.3966,1.7562 0.2303,-2.5271 c 0.0059,-0.0647 0.0296,-0.1267 0.0686,-0.17922 z"
       style="fill:#ffffff" />
  </g>
  <path
     style="fill:#ffffff;stroke:#ffffff"
     d="m 0.5,612.196 h 62.810495 c 28.5869,0 45.094505,18.021 45.094505,38.044 v 8.409 c 0,8.41 -4.02601,16.019 -11.273305,22.025 13.287295,6.408 20.937295,17.621 20.937295,29.634 v 5.607 c 0,22.025 -16.508,40.847 -45.497995,40.847 H 0.5 Z m 33.820995,27.231 v 30.035 h 24.9632 c 8.8579,0 15.3,-4.005 15.3,-12.014 v -5.607 c 0,-8.409 -6.8447,-12.013 -15.3,-12.013 h -24.9632 z m 0,56.865 v 33.639 h 34.2237 c 8.8579,0 15.7028,-4.005 15.7028,-12.414 v -8.81 c 0,-8.41 -7.2474,-12.415 -16.1053,-12.415 z" />
  <path
     style="fill:#ffffff;stroke:#ffffff"
     d="M 415.90899,757.633 V 612.196 H 450.847 l 40.56001,79.146 40.962,-79.146 H 565.7 v 145.437 h -33.331 v -81.557 l -25.702,50.219 h -31.725 l -25.3,-50.219 v 81.557 z" />
  <path
     style="fill:#ffffff;stroke:#ffffff"
     d="M 655.85399,800.306 634.515,758.578 h -0.80499 c -29.795,0 -47.108,-16.05 -47.108,-32.902 v -81.45 c 0,-16.852 17.715,-32.901 47.10799,-32.901 h 25.365 c 28.587,0 45.09501,16.049 45.09501,32.901 v 81.45 c 0,14.846 -12.079,28.488 -33.82101,32.099 l 15.3,30.494 z m -0.402,-69.012 c 8.858,0 15.702,-4.013 15.702,-12.439 v -68.209 c 0,-8.426 -7.247,-12.438 -15.702,-12.438 h -19.326 c -8.456,0 -15.301,4.012 -15.301,12.438 v 68.209 c 0,8.426 7.248,12.439 15.301,12.439 z" />
  <path
     style="fill:#ffffff;stroke:#ffffff"
     d="m 324.54699,758.504 c -29.794,0 -47.108,-16.042 -47.108,-32.885 V 644.21 c 0,-16.844 17.716,-32.885 47.108,-32.885 h 25.366 c 28.587,0 45.095,16.041 45.095,32.885 v 81.409 c 0,16.843 -16.508,32.885 -45.095,32.885 z m 21.34,-27.271 c 8.858,0 15.703,-4.01 15.703,-12.432 v -68.175 c 0,-8.422 -7.248,-12.432 -15.703,-12.432 h -19.326 c -8.456,0 -15.3,4.01 -15.3,12.432 v 68.175 c 0,8.422 7.247,12.432 15.3,12.432 z" />
  <path
     style="fill:#ffffff;stroke:#ffffff"
     d="m 186.07799,758.504 c -29.795,0 -47.108,-16.042 -47.108,-32.885 V 644.21 c 0,-16.844 17.716,-32.885 47.108,-32.885 h 25.366 c 28.586,0 45.094,16.041 45.094,32.885 v 81.409 c 0,16.843 -16.508,32.885 -45.094,32.885 z m 21.339,-27.271 c 8.858,0 15.703,-4.01 15.703,-12.432 v -68.175 c 0,-8.422 -7.248,-12.432 -15.703,-12.432 h -19.326 c -8.455,0 -15.3,4.01 -15.3,12.432 v 68.175 c 0,8.422 7.247,12.432 15.3,12.432 z" />
</svg>
