<?xml version="1.0" encoding="UTF-8"?>
<svg id="countries-ru" width="26px" height="26px" viewBox="0 0 26 26" version="1.1" xmlns="http://www.w3.org/2000/svg"
     xmlns:xlink="http://www.w3.org/1999/xlink">
    <defs>
        <circle id="path-1" cx="12" cy="12" r="12"></circle>
        <filter x="-6.2%" y="-6.2%" width="112.5%" height="112.5%" filterUnits="objectBoundingBox" id="filter-2">
            <feOffset dx="0" dy="0" in="SourceAlpha" result="shadowOffsetOuter1"></feOffset>
            <feGaussianBlur stdDeviation="0.5" in="shadowOffsetOuter1" result="shadowBlurOuter1"></feGaussianBlur>
            <feColorMatrix values="0 0 0 0 0   0 0 0 0 0   0 0 0 0 0  0 0 0 0.2 0" type="matrix"
                           in="shadowBlurOuter1"></feColorMatrix>
        </filter>
    </defs>
    <g id="pop-up_en" stroke="none" stroke-width="1" fill="none" fill-rule="evenodd"
       transform="translate(-84.000000, -312.000000)">
        <g id="pop-up_language" transform="translate(69.000000, 57.000000)">
            <g id="russia" transform="translate(16.000000, 256.000000)">
                <g id="bg" fill="black" fill-opacity="1">
                    <use filter="url(#filter-2)" xlink:href="#path-1"></use>
                </g>
                <path d="M23.3171772,16 C21.6698317,20.6607696 17.2248756,24 12,24 C6.77512441,24 2.33016831,20.6607696 0.682822771,16 L23.3171777,16 L23.3171777,16 L23.3171772,16 L23.3171772,16 L23.3171772,16 Z"
                      id="red" fill="#E94B35"></path>
                <path d="M23.3171772,15.9999999 C23.7593832,14.7488842 24,13.4025416 24,11.9999999 C24,10.5974582 23.7593832,9.25111561 23.3171772,7.99999995 L0.682822264,8 C0.24061686,9.25111561 0,10.5974582 0,11.9999999 C0,13.4025416 0.24061686,14.7488842 0.682822771,15.9999998 L23.3171777,15.9999998 L23.3171777,15.9999998 L23.3171772,15.9999999 L23.3171772,15.9999999 L23.3171772,15.9999999 Z"
                      id="blue" fill="#227FBB"></path>
                <path d="M23.3171772,7.99999995 C21.6698317,3.33923033 17.2248756,0 12,0 C6.77512441,0 2.33016831,3.33923033 0.682822771,7.99999995 L23.3171777,8 L23.3171777,8 L23.3171772,7.99999995 L23.3171772,7.99999995 L23.3171772,7.99999995 Z"
                      id="white" fill="#FFFFFF"></path>
            </g>
        </g>
    </g>
</svg>